<?xml version="1.0" encoding="UTF-8" standalone="no"?>
<!DOCTYPE svg PUBLIC "-//W3C//DTD SVG 1.1//EN"
 "http://www.w3.org/Graphics/SVG/1.1/DTD/svg11.dtd">
<!-- Generated by graphviz version 2.40.1 (20161225.0304)
 -->
<!-- Title: dependencies Pages: 1 -->
<svg width="767pt" height="284pt"
 viewBox="0.00 0.00 767.00 284.00" xmlns="http://www.w3.org/2000/svg" xmlns:xlink="http://www.w3.org/1999/xlink">
<g id="graph0" class="graph" transform="scale(1 1) rotate(0) translate(4 280)">
<title>dependencies</title>
<polygon fill="#ffffff" stroke="transparent" points="-4,4 -4,-280 763,-280 763,4 -4,4"/>
<text text-anchor="start" x="358.5091" y="-42.4" font-family="sans-serif" font-weight="bold" font-size="14.00" fill="#000000">Legend</text>
<polygon fill="#ffffb3" stroke="transparent" points="145.5,-10 145.5,-30 165.5,-30 165.5,-10 145.5,-10"/>
<text text-anchor="start" x="169.129" y="-15.4" font-family="sans-serif" font-size="14.00" fill="#000000"> &#160;Declarations</text>
<polygon fill="#8dd3c7" stroke="transparent" points="258.5,-10 258.5,-30 278.5,-30 278.5,-10 258.5,-10"/>
<text text-anchor="start" x="282.2251" y="-15.4" font-family="sans-serif" font-size="14.00" fill="#000000"> &#160;Module</text>
<polygon fill="#80b1d3" stroke="transparent" points="344.5,-10 344.5,-30 364.5,-30 364.5,-10 344.5,-10"/>
<text text-anchor="start" x="368.2812" y="-15.4" font-family="sans-serif" font-size="14.00" fill="#000000"> &#160;Bootstrap</text>
<polygon fill="#fdb462" stroke="transparent" points="441.5,-10 441.5,-30 461.5,-30 461.5,-10 441.5,-10"/>
<text text-anchor="start" x="465.1732" y="-15.4" font-family="sans-serif" font-size="14.00" fill="#000000"> &#160;Providers</text>
<polygon fill="#fb8072" stroke="transparent" points="537.5,-10 537.5,-30 557.5,-30 557.5,-10 537.5,-10"/>
<text text-anchor="start" x="561.2258" y="-15.4" font-family="sans-serif" font-size="14.00" fill="#000000"> &#160;Exports</text>
<g id="clust1" class="cluster">
<title>cluster_AppModule</title>
<polygon fill="none" stroke="#000000" stroke-dasharray="1,5" points="8,-70 8,-268 751,-268 751,-70 8,-70"/>
</g>
<g id="clust2" class="cluster">
<title>cluster_AppModule_declarations</title>
<polygon fill="none" stroke="#000000" points="16,-78 16,-130 743,-130 743,-78 16,-78"/>
</g>
<g id="clust10" class="cluster">
<title>cluster_AppModule_bootstrap</title>
<polygon fill="none" stroke="#000000" points="300,-208 300,-260 424,-260 424,-208 300,-208"/>
</g>
<!-- AccountEntryComponent -->
<g id="node1" class="node">
<title>AccountEntryComponent</title>
<polygon fill="#ffffb3" stroke="#000000" points="734.8627,-122 575.1373,-122 575.1373,-86 734.8627,-86 734.8627,-122"/>
<text text-anchor="middle" x="655" y="-99.8" font-family="Times,serif" font-size="14.00" fill="#000000">AccountEntryComponent</text>
</g>
<!-- AppModule -->
<g id="node6" class="node">
<title>AppModule</title>
<polygon fill="#8dd3c7" stroke="#000000" points="403.6571,-187 400.6571,-191 379.6571,-191 376.6571,-187 320.3429,-187 320.3429,-151 403.6571,-151 403.6571,-187"/>
<text text-anchor="middle" x="362" y="-164.8" font-family="Times,serif" font-size="14.00" fill="#000000">AppModule</text>
</g>
<!-- AccountEntryComponent&#45;&gt;AppModule -->
<g id="edge1" class="edge">
<title>AccountEntryComponent&#45;&gt;AppModule</title>
<path fill="none" stroke="#000000" d="M655,-122.2843C655,-143.3211 655,-175 655,-175 655,-175 413.6686,-175 413.6686,-175"/>
<polygon fill="#000000" stroke="#000000" points="413.6686,-171.5001 403.6686,-175 413.6686,-178.5001 413.6686,-171.5001"/>
</g>
<!-- AppComponent -->
<g id="node2" class="node">
<title>AppComponent</title>
<polygon fill="#ffffb3" stroke="#000000" points="556.9399,-122 451.0601,-122 451.0601,-86 556.9399,-86 556.9399,-122"/>
<text text-anchor="middle" x="504" y="-99.8" font-family="Times,serif" font-size="14.00" fill="#000000">AppComponent</text>
</g>
<!-- AppComponent&#45;&gt;AppModule -->
<g id="edge2" class="edge">
<title>AppComponent&#45;&gt;AppModule</title>
<path fill="none" stroke="#000000" d="M504,-122.0225C504,-139.3734 504,-163 504,-163 504,-163 413.8367,-163 413.8367,-163"/>
<polygon fill="#000000" stroke="#000000" points="413.8367,-159.5001 403.8367,-163 413.8366,-166.5001 413.8367,-159.5001"/>
</g>
<!-- DashboardComponent -->
<g id="node3" class="node">
<title>DashboardComponent</title>
<polygon fill="#ffffb3" stroke="#000000" points="432.9734,-122 291.0266,-122 291.0266,-86 432.9734,-86 432.9734,-122"/>
<text text-anchor="middle" x="362" y="-99.8" font-family="Times,serif" font-size="14.00" fill="#000000">DashboardComponent</text>
</g>
<!-- DashboardComponent&#45;&gt;AppModule -->
<g id="edge3" class="edge">
<title>DashboardComponent&#45;&gt;AppModule</title>
<path fill="none" stroke="#000000" d="M362,-122.1061C362,-122.1061 362,-140.991 362,-140.991"/>
<polygon fill="#000000" stroke="#000000" points="358.5001,-140.9909 362,-150.991 365.5001,-140.991 358.5001,-140.9909"/>
</g>
<!-- FilterPipe -->
<g id="node4" class="node">
<title>FilterPipe</title>
<polygon fill="#ffffb3" stroke="#000000" points="272.7177,-122 201.2823,-122 201.2823,-86 272.7177,-86 272.7177,-122"/>
<text text-anchor="middle" x="237" y="-99.8" font-family="Times,serif" font-size="14.00" fill="#000000">FilterPipe</text>
</g>
<!-- FilterPipe&#45;&gt;AppModule -->
<g id="edge4" class="edge">
<title>FilterPipe&#45;&gt;AppModule</title>
<path fill="none" stroke="#000000" d="M237,-122.0225C237,-139.3734 237,-163 237,-163 237,-163 310.0291,-163 310.0291,-163"/>
<polygon fill="#000000" stroke="#000000" points="310.0291,-166.5001 320.0291,-163 310.029,-159.5001 310.0291,-166.5001"/>
</g>
<!-- ToggleButtonComponent -->
<g id="node5" class="node">
<title>ToggleButtonComponent</title>
<polygon fill="#ffffb3" stroke="#000000" points="183.608,-122 24.392,-122 24.392,-86 183.608,-86 183.608,-122"/>
<text text-anchor="middle" x="104" y="-99.8" font-family="Times,serif" font-size="14.00" fill="#000000">ToggleButtonComponent</text>
</g>
<!-- ToggleButtonComponent&#45;&gt;AppModule -->
<g id="edge5" class="edge">
<title>ToggleButtonComponent&#45;&gt;AppModule</title>
<path fill="none" stroke="#000000" d="M104,-122.2843C104,-143.3211 104,-175 104,-175 104,-175 310.2611,-175 310.2611,-175"/>
<polygon fill="#000000" stroke="#000000" points="310.2611,-178.5001 320.2611,-175 310.2611,-171.5001 310.2611,-178.5001"/>
</g>
<!-- AppComponent  -->
<g id="node7" class="node">
<title>AppComponent </title>
<polygon fill="#80b1d3" stroke="#000000" points="416.439,-252 307.561,-252 307.561,-216 416.439,-216 416.439,-252"/>
<text text-anchor="middle" x="362" y="-229.8" font-family="Times,serif" font-size="14.00" fill="#000000">AppComponent </text>
</g>
<!-- AppModule&#45;&gt;AppComponent  -->
<g id="edge6" class="edge">
<title>AppModule&#45;&gt;AppComponent </title>
<path fill="none" stroke="#000000" stroke-dasharray="1,5" d="M362,-187.1061C362,-187.1061 362,-205.991 362,-205.991"/>
<polygon fill="#000000" stroke="#000000" points="358.5001,-205.9909 362,-215.991 365.5001,-205.991 358.5001,-205.9909"/>
</g>
</g>
</svg>
